# xmcd
#
# Track frame offsets:
#	150
#	13016
#	27916
#	39409
#	52092
#	68163
#	81761
#	95416
#	103806
#	113846
#	126371
#	138314
#	155045
#	168823
#	186627
#	202211
#	216337
#	230335
#	251862
#	267387
#	281564
#	296714
#	312689
#	325811
#
# Disc length: 4441 seconds
#
# Revision: 0
# Processed by: cddbd v1.4PL0 Copyright (c) Steve Scherf et al.
# Submitted via: EasyCDDAExtractor 4.6.9.1
#
DISCID=7b115718
DTITLE=Osborne Brothers - The Louisiana Hayride Archives
DYEAR=1900
DGENRE=Country
TTITLE0=When My Blue Moon Turns To Gold
TTITLE1=Amazing Grace
TTITLE2=It's Raining Here This Morning
TTITLE3=Old Roy And Brother Oz
TTITLE4=Bluegrass
TTITLE5=You Don't Have To Go Home (But You Cant Stay Here)
TTITLE6=I Never Once Stopped Loving You
TTITLE7=Long Enough To Make Me Blue
TTITLE8=I Ain't Got A Worry on My Mind
TTITLE9=Worried Man Blues
TTITLE10=Deep Dark Water
TTITLE11=Picture On The Wall
TTITLE12=New Patches
TTITLE13=Sweet Sunny South
TTITLE14=Lorena
TTITLE15=Shiloh Hill
TTITLE16=When The Roses Bloom In Dixieland
TTITLE17=Ashokan Farewell
TTITLE18=Damn Yankee Lad
TTITLE19=The Last Time
TTITLE20=The Waltz You Saved For Me
TTITLE21=Farther Along
TTITLE22=When I Swim The Golden River
TTITLE23=America The Beautiful
EXTD=
EXTT0=
EXTT1=
EXTT2=
EXTT3=
EXTT4=
EXTT5=
EXTT6=
EXTT7=
EXTT8=
EXTT9=
EXTT10=
EXTT11=
EXTT12=
EXTT13=
EXTT14=
EXTT15=
EXTT16=
EXTT17=
EXTT18=
EXTT19=
EXTT20=
EXTT21=
EXTT22=
EXTT23=
PLAYORDER=
